<?xml version="1.0" standalone="no"?><!DOCTYPE svg PUBLIC "-//W3C//DTD SVG 1.1//EN" "http://www.w3.org/Graphics/SVG/1.1/DTD/svg11.dtd"><svg t="1591015308319" class="icon" viewBox="0 0 1097 1024" version="1.1" xmlns="http://www.w3.org/2000/svg" p-id="22017" xmlns:xlink="http://www.w3.org/1999/xlink" width="214.2578125" height="200"><defs><style type="text/css"></style></defs><path d="M977.261714 18.285714H111.469714C64.256 18.285714 25.6 51.456 25.6 96.182857v828.342857c0 44.690286 38.656 81.188571 85.869714 81.188572h872.886857c47.177143 0 82.285714-36.498286 82.285715-81.188572V96C1066.678857 51.456 1024.512 18.285714 977.298286 18.285714zM336.676571 256.658286c53.869714 0 97.609143 42.861714 97.609143 95.853714 0 53.028571-43.739429 95.890286-97.609143 95.890286-53.979429 0-97.609143-42.934857-97.609142-95.890286-0.073143-53.028571 43.629714-95.853714 97.645714-95.853714zM212.992 864.658286c-10.093714 0-20.224-3.291429-28.452571-9.910857a39.277714 39.277714 0 0 1-4.754286-57.929143l171.483428-233.837715a45.787429 45.787429 0 0 1 59.245715-6.217142l119.698285 96.329142 253.074286-301.787428c15.104-17.737143 92.854857-101.12 139.556572-6.509714 0-0.109714 0.109714 74.459429 0.109714 202.24 0.109714 133.302857 0.109714 317.622857 0.109714 317.622857-0.914286-0.365714-709.741714 0-710.070857 0z" fill="#cdcdcd" p-id="22018"></path></svg>